<?xml version="1.0" encoding="utf-8"?>
<!-- Generator: Adobe Illustrator 27.1.1, SVG Export Plug-In . SVG Version: 6.00 Build 0)  -->
<svg version="1.1" id="Lager_1" xmlns="http://www.w3.org/2000/svg" xmlns:xlink="http://www.w3.org/1999/xlink" x="0px" y="0px"
	 viewBox="0 0 228.12 100.49" style="enable-background:new 0 0 228.12 100.49;" xml:space="preserve">
<g>
	<path d="M30.83,23.97l0.58,0.19l0.53,0.24l0.39,0.24L33,25.23l0.48,0.68l0.14,0.39l0.15,0.43l0.1,0.53l0.19,0.97l0.05,0.53v0.92
		l-0.05,0.43l-0.1,0.58l-0.05,0.63l-0.05,0.29l0.05,0.05l0.19-0.24l0.24-0.39l0.24-0.34l0.29-0.34L35.12,30l0.29-0.34l0.34-0.29
		l0.24-0.34l0.29-0.34l0.92-0.92l0.34-0.29l0.92-0.82l0.48-0.39l0.63-0.48l0.34-0.29l0.68-0.48l0.39-0.24l1.64-0.63l0.63-0.19
		l0.58-0.1h1.79l0.87,0.19l0.43,0.14l0.77,0.39l0.34,0.24l0.34,0.34l0.29,0.34l0.24,0.34l0.19,0.39l0.15,0.43l0.1,0.39l0.1,0.43
		l0.05,0.43l0.05,0.48v0.87l-0.05,0.43v0.48l-0.05,0.29l-0.05,0.53l-0.05,0.43l-0.1,0.43l-0.1,0.34l-0.1,0.48l-0.24,1.25l-0.1,0.43
		l-0.29,0.87l-0.1,0.43l-0.14,0.43l-0.1,0.39l-0.29,0.87l-0.1,0.39l-0.1,0.43l-0.29,0.87l-0.1,0.39l-0.29,0.87l-0.1,0.43l-0.1,0.39
		l-0.15,0.43l-0.1,0.43l-0.15,0.43l-0.14,0.39l-0.1,0.43l-0.14,0.43l-0.1,0.43l-0.1,0.39l-0.1,0.43L45.5,45.4l-0.14,0.39l-0.15,0.43
		l-0.14,0.39l-0.29,1.3l-0.05,0.43l-0.1,0.48l-0.15,0.63l-0.1,0.58l-0.1,0.53l-0.1,0.63l-0.1,0.58l-0.05,0.48v0.87l0.05,0.43v0.43
		l0.05,0.43l0.05,0.48l0.05,0.43l0.1,0.39l0.14,0.43l0.24,0.43l0.1,0.29l0.29,0.43l0.29,0.34l0.29,0.29l0.39,0.29l0.34,0.24
		l0.39,0.43l0.15,0.68L46.7,60.3l-0.43,0.63l-0.63,0.43l-0.72,0.1l-0.63-0.1l-0.43-0.15l-0.39-0.24l-0.34-0.19l-0.29-0.24
		l-0.34-0.24l-0.39-0.34l-0.34-0.43l-0.15-0.19l-0.34-0.48l-0.58-1.06l-0.15-0.48l-0.1-0.29l-0.15-0.48l-0.05-0.43l-0.05-0.39
		l-0.15-1.3v-0.87l-0.05-0.48v-0.43l0.05-0.43l0.1-0.58l0.1-0.63v-0.48l0.1-0.87l0.15-0.63l0.1-0.68l0.24-1.01l0.1-0.58l0.14-0.48
		l0.05-0.43l0.1-0.43l0.14-0.58l0.34-1.01l0.24-0.87l0.14-0.58l0.15-0.43l0.1-0.43l0.1-0.58l0.15-0.48l0.19-0.53l0.14-0.48
		l0.19-0.53l0.19-0.68l0.14-0.58l0.15-0.48l0.14-0.39l0.14-0.43l0.15-0.39l0.29-0.87l0.1-0.43l0.15-0.48l0.1-0.43l0.1-0.34l0.1-0.43
		l0.14-0.43l0.19-0.87l0.1-0.48l0.1-0.87v-0.92l-0.1-0.87l-0.1-0.43l-0.19-0.39l-0.29-0.34l-0.39-0.29l-0.39-0.14l-0.48-0.05
		l-0.58,0.1l-0.58,0.15l-0.43,0.19l-0.39,0.19l-0.72,0.48l-0.39,0.24l-0.34,0.24l-0.63,0.63l-0.68,0.58l-0.29,0.24l-0.63,0.63
		l-0.24,0.34l-0.34,0.29l-0.48,0.68l-0.29,0.34l-0.24,0.34l-0.34,0.34l-0.58,0.68l-0.53,0.77l-0.15,0.24l-0.29,0.39l-0.48,0.63
		l-0.29,0.43l-0.34,0.58l-0.34,0.48l-0.19,0.43l-0.14,0.39l-0.29,0.87l-0.1,0.43l-0.14,0.63l-0.15,0.58l-0.43,1.3l-0.1,0.39
		l-0.14,0.43l-0.29,1.3l-0.05,0.39l-0.14,0.43l-0.1,0.43l-0.14,0.43l-0.1,0.39l-0.14,0.43l-0.19,0.87l-0.14,0.48l-0.15,0.63
		l-0.14,0.53l-0.14,0.48l-0.15,0.58l-0.14,0.63l-0.15,0.43l-0.19,0.87l-0.14,0.48l-0.15,0.39l-0.19,0.77l-0.19,0.87l-0.15,0.43
		l-0.14,0.39l-0.29,0.87l-0.24,0.58l-0.43,0.63l-0.63,0.43l-0.77,0.24l-0.82,0.05l-0.72-0.14l-0.58-0.24l-0.14-0.39l0.05-0.39
		l0.1-0.43l0.19-0.63l0.15-0.58l0.19-0.43l0.15-0.43l0.14-0.39l0.14-0.43l0.1-0.39l0.15-0.43l0.1-0.43l0.15-0.43l0.1-0.43l0.1-0.39
		l0.14-0.48l0.19-0.58l0.15-0.58l0.1-0.48l0.1-0.43l0.1-0.39l0.1-0.43l0.15-0.43l0.14-0.39l0.29-1.3l0.15-0.43l0.1-0.43l0.15-0.63
		l0.14-0.58l0.15-0.48l0.14-0.63l0.14-0.58l0.1-0.43l0.29-0.87l0.1-0.39l0.19-0.87l0.14-0.43l0.1-0.43l0.1-0.39l0.48-2.17l0.1-0.39
		l0.29-0.87l0.15-0.39l0.14-0.43l0.1-0.43l0.14-0.87l0.1-0.48l0.1-0.43l0.1-0.39l0.05-0.43v-1.35l-0.05-0.43l-0.1-0.43l-0.14-0.43
		l-0.24-0.34l-0.34-0.34l-0.39-0.24l-0.39-0.14l-0.43-0.05l-0.48,0.05l-0.43,0.05l-0.53,0.24l-0.53,0.29l-0.43,0.19l-0.34,0.24
		l-0.68,0.58l-0.39,0.34l-0.48,0.39l-0.39,0.34l-0.39,0.39l-0.77,0.87l-0.34,0.34l-0.48,0.68l-0.34,0.39l-0.19,0.24l-0.39,0.53
		l-0.39,0.48l-0.68,0.87l-0.39,0.48l-0.29,0.39l-0.34,0.53l-0.43,0.63l-0.34,0.53l-0.19,0.43l-0.24,0.39l-0.19,0.39l-0.19,0.58
		l-0.15,0.58l-0.1,0.43l-0.19,0.63l-0.34,1.01l-0.19,0.63l-0.14,0.77l-0.15,0.63l-0.53,1.59l-0.14,0.48l-0.14,0.58l-0.15,0.63
		l-0.14,0.43l-0.15,0.39l-0.14,0.43l-0.15,0.63l-0.14,0.58l-0.29,0.87l-0.1,0.43l-0.29,1.16l-0.24,0.77l-0.14,0.48l-0.1,0.39
		l-0.14,0.43l-0.14,0.39l-0.1,0.43l-0.14,0.39l-0.15,0.43l-0.14,0.39l-0.15,0.43l-0.24,0.58l-0.39,0.63l-0.63,0.39l-0.77,0.1
		l-0.82-0.1l-0.72-0.29l-0.48-0.48l-0.1-0.53l0.05-0.43l0.29-0.87l0.14-0.39l0.15-0.43l0.19-0.87l0.15-0.39l0.1-0.43l0.19-0.53
		l0.1-0.24l0.15-0.53l0.1-0.39l0.1-0.43l0.14-0.43l0.15-0.39l0.14-0.43l0.19-0.39l0.15-0.43l0.1-0.43l0.1-0.48l0.14-0.58l0.19-0.63
		l0.1-0.43l0.29-0.87l0.15-0.39l0.14-0.43l0.29-1.3l0.14-0.39l0.15-0.43l0.1-0.43l0.15-0.43l0.1-0.39l0.1-0.43l0.29-0.87l0.1-0.39
		l0.1-0.43l0.15-0.43l0.14-0.39l0.19-0.87l0.29-0.87l0.15-0.39l0.1-0.43l0.15-0.43l0.1-0.43l0.15-0.39l0.29-1.3l0.19-0.43l0.1-0.43
		l0.1-0.39l0.29-0.87l0.15-0.39l0.14-0.43l0.1-0.43l0.05-0.29l-0.1-0.05l-0.24,0.19l-1.69,1.45l-0.68,0.48l-0.39,0.24l-0.77,0.39
		l-0.39,0.24l-0.34,0.24l-0.39,0.19l-0.43,0.19l-0.39,0.14l-0.39,0.24l-0.39,0.19l-0.43,0.24l-0.53,0.29l-0.53,0.24l-0.43,0.19
		l-0.39,0.24l-0.43,0.24l-0.24,0.14l-0.43,0.34l-0.34,0.24l-0.58,0.68l-0.24,0.34l-0.19,0.39L4.1,37.58l-0.05,0.43v0.92l0.15,0.48
		l0.19,0.39l0.29,0.39l0.34,0.29l0.43,0.19l0.43,0.15l0.48,0.29l0.24,0.68L6.42,42.5l-0.29,0.48l-0.39,0.19H5.31l-0.39-0.05
		l-0.53-0.1l-0.63-0.14l-0.58-0.15L2.8,42.6L2.41,42.4l-0.39-0.24l-0.39-0.29l-0.43-0.43l-0.39-0.48l-0.29-0.39l-0.19-0.43
		l-0.1-0.43L0.1,39.12L0,38.5v-0.92l0.1-0.39l0.1-0.43l0.34-1.01l0.29-0.53l0.24-0.43l0.39-0.48l0.39-0.43l0.39-0.29l0.34-0.24
		l0.34-0.29l0.34-0.24l0.43-0.24l0.53-0.24l0.53-0.29l0.48-0.24l0.53-0.24l1.01-0.34l0.77-0.39l1.21-0.53l0.96-0.43l0.53-0.19
		l0.43-0.19l0.39-0.19l0.82-0.43l0.48-0.29l0.43-0.24l0.39-0.29l0.39-0.24l0.39-0.29l0.68-0.58l0.29-0.24l0.34-0.29l0.34-0.24
		l0.34-0.29l0.87-1.01l0.24-0.39l0.34-0.29l0.39-0.24l0.43-0.1h0.48l0.48,0.05l0.48,0.15l0.39,0.24l0.39,0.29l0.14,0.39l-0.05,0.43
		l-0.29,1.3l-0.15,0.39l-0.14,0.43l-0.15,0.39l-0.1,0.43l-0.15,0.43l-0.1,0.43l-0.1,0.39l-0.29,1.3l-0.14,0.39l-0.05,0.24l0.14-0.1
		l0.34-0.39l0.14-0.29l0.29-0.43l0.58-0.68l0.29-0.29l0.39-0.43l0.43-0.43l0.34-0.39l0.68-0.58l0.29-0.29l0.34-0.29l0.29-0.29
		l0.29-0.34l0.34-0.24l0.34-0.29l0.43-0.24l0.24-0.14l0.43-0.29l0.39-0.24l0.34-0.24l0.43-0.15l0.58-0.24l0.48-0.14l0.48-0.1
		l0.48-0.05h1.69L30.83,23.97z"/>
	<path d="M62.68,46.99v0.53l-0.15,0.43l-0.39,0.77l-0.43,0.72l-0.24,0.43l-0.19,0.39l-0.29,0.43l-0.14,0.29l-0.24,0.43l-0.24,0.39
		l-0.24,0.34l-0.29,0.39l-0.24,0.34l-0.48,0.77l-0.87,1.01l-0.58,0.63l-0.34,0.34l-0.29,0.34l-0.34,0.29l-1.06,0.82l-0.34,0.24
		l-0.43,0.19l-0.43,0.14l-0.39,0.1l-0.87,0.19h-0.82l-0.53-0.05l-0.39-0.14L51,57.6l-0.39-0.24l-0.34-0.29l-0.24-0.34l-0.24-0.39
		l-0.19-0.43l-0.1-0.39l-0.1-0.43l-0.05-0.43v-0.43l0.1-0.87l0.1-0.43l0.14-0.43l0.19-0.87l0.15-0.39l0.1-0.43l0.15-0.43l0.14-0.39
		l0.43-1.3l0.05-0.39l0.1-0.43l0.14-0.43l0.1-0.43l0.1-0.39l0.29-0.87l0.14-0.58l0.14-0.63l0.29-0.87l0.1-0.43l0.1-0.34l0.1-0.43
		l0.19-0.48l0.15-0.39l0.29-1.3l0.14-0.43l0.15-0.58l0.19-0.63l0.14-0.43l0.19-0.39l0.29-0.24l0.43-0.19l0.39-0.05l0.48,0.05
		l0.87,0.1l0.77,0.29l0.24,0.34v0.43l-0.1,0.43l-0.14,0.58l-0.14,0.63l-0.29,0.87l-0.1,0.39l-0.1,0.43l-0.14,0.48l-0.14,0.58
		l-0.48,1.45l-0.1,0.43l-0.19,0.63l-0.34,1.01l-0.1,0.43l-0.1,0.39l-0.1,0.43l-0.34,0.82l-0.1,0.43l-0.34,1.21l-0.29,0.87l-0.1,0.43
		l-0.15,0.63l-0.14,0.77l-0.1,0.82l0.1,0.72l0.39,0.53l0.53,0.14l0.43-0.05l0.43-0.19l0.34-0.24l0.39-0.29l1.59-1.59l0.29-0.34
		l0.24-0.34l0.29-0.39l0.48-0.77l0.29-0.34l0.19-0.29l0.24-0.39l0.29-0.43l0.19-0.43l0.39-0.82l0.58-1.16l0.24-0.39l0.43-0.24
		l0.63,0.1L62.68,46.99z M54.91,32.18l0.24-0.39l0.39-0.34l0.39-0.24l0.48-0.14l0.43-0.1h0.48l0.43,0.1l0.39,0.24l0.34,0.29
		l0.34,0.34l0.24,0.39l0.14,0.43l0.05,0.43v0.48l-0.15,0.43l-0.24,0.39l-0.29,0.39l-0.34,0.29l-0.39,0.29l-0.43,0.19l-0.48,0.1
		L56.5,35.7l-0.48-0.1l-0.77-0.48l-0.29-0.34l-0.24-0.39l-0.1-0.43l-0.05-0.43l0.05-0.43l0.1-0.48L54.91,32.18z"/>
	<path d="M63.79,41.87l0.34-0.34l0.58-0.68l1.01-0.87l0.34-0.24l0.39-0.29l0.34-0.24l0.39-0.19l0.43-0.19l0.72-0.39l0.43-0.24
		l0.87-0.29l0.39-0.15l0.87-0.19l0.43-0.05l0.48-0.05l0.87-0.1h1.11l0.63,0.1l0.53,0.1l0.34,0.05l0.29-0.14l0.19-0.34l0.1-0.43
		l0.29-0.87l0.1-0.39l0.14-0.43l0.34-0.82l0.14-0.48l0.1-0.29l0.19-0.48l0.1-0.39l0.29-0.87l0.14-0.39l0.48-1.45l0.24-0.58
		l0.29-0.87l0.14-0.39l0.19-0.48l0.1-0.29l0.39-0.87L79.66,26l0.43-0.82l0.19-0.39l0.43-0.34l0.53-0.19h0.48l0.43,0.05l0.48,0.1
		l0.29,0.1l0.48,0.15l0.34,0.24l0.15,0.39l-0.1,0.39l-0.1,0.43l-0.19,0.43l-0.19,0.39l-0.14,0.39l-0.15,0.43l-0.24,0.58L82.6,28.9
		l-0.19,0.53l-0.58,1.54l-0.19,0.58l-0.24,0.58l-0.14,0.43l-0.14,0.39l-0.34,1.01l-0.24,0.58l-0.15,0.48l-0.53,1.59l-0.1,0.43
		l-0.15,0.39l-0.14,0.43l-0.14,0.39l-0.15,0.43l-0.14,0.39l-0.1,0.43l-0.1,0.39l-0.1,0.43l-0.15,0.43l-0.14,0.39l-0.15,0.43
		l-0.1,0.43l-0.1,0.39l-0.1,0.43l-0.15,0.43l-0.14,0.63l-0.19,0.63l-0.1,0.29l-0.15,0.53l-0.1,0.43l-0.1,0.58l-0.1,0.63l-0.29,1.3
		l-0.05,0.43l-0.1,0.43l-0.1,0.63l-0.1,0.58l-0.05,0.43l-0.1,0.43l-0.05,0.43v0.43l0.05,0.48l0.05,0.63l0.15,0.58l0.14,0.43
		l0.29,0.29l0.39,0.15l0.43,0.05l0.39-0.1l0.43-0.14l0.39-0.24l0.87-0.77l0.34-0.34l0.48-0.68l0.48-0.77l0.68-0.96l0.24-0.39
		l0.19-0.39l0.24-0.43l0.48-1.06L83.13,48l0.19-0.34l0.19-0.43l0.24-0.53l0.53-0.39l0.58,0.1l0.34,0.48v0.63l-0.24,0.58l-0.24,0.48
		l-0.29,0.53l-0.29,0.63l-0.19,0.29l-0.58,1.16l-0.29,0.43l-0.63,1.01l-0.48,0.77l-0.24,0.34l-0.29,0.39l-0.24,0.34l-0.29,0.29
		l-0.34,0.29l-0.34,0.39l-0.19,0.19l-0.34,0.39l-0.34,0.29l-0.39,0.24l-0.34,0.19l-0.39,0.19l-1.25,0.43l-0.43,0.1h-0.39l-0.43,0.05
		l-0.43-0.05l-0.43-0.1l-0.39-0.19l-0.39-0.24l-0.29-0.24l-0.34-0.34L73,55.67l-0.19-0.39l-0.15-0.43l-0.1-0.39l-0.15-1.3v-0.92
		l-0.1-0.05l-0.24,0.34l-0.24,0.39l-0.43,0.77l-0.24,0.34l-0.29,0.34l-0.53,0.68l-0.29,0.29l-1.01,0.87l-0.43,0.34l-0.48,0.39
		l-0.43,0.29l-0.39,0.19l-0.48,0.15l-1.11,0.24l-0.48,0.1l-0.43,0.05l-0.39-0.05l-0.43-0.05l-0.43-0.1l-0.39-0.1l-0.43-0.19
		l-0.34-0.19L62,56.98l-0.43-0.43l-0.43-0.39l-0.24-0.39l-0.19-0.39l-0.14-0.43l-0.29-0.77l-0.15-0.43l-0.05-0.43l-0.05-0.58V52.1
		l-0.05-0.43v-0.43l0.05-0.48l0.05-0.58l0.1-0.63l0.1-0.43l0.14-0.48l0.05-0.29l0.14-0.48l0.15-0.43l0.43-1.16l0.14-0.43l0.39-0.77
		L62,44.53L62.24,44l0.29-0.48l0.19-0.24l0.29-0.39l0.48-0.68L63.79,41.87z M73.63,40.19l-0.92,0.05h-0.43l-0.43,0.1l-0.48,0.1
		l-0.29,0.1l-0.48,0.19l-0.43,0.14l-0.43,0.19l-0.39,0.24L69,41.54l-0.34,0.29l-0.34,0.34l-0.68,0.58l-0.29,0.29l-0.29,0.34
		l-0.58,0.72l-0.24,0.34l-0.24,0.43l-0.58,1.06l-0.24,0.39l-0.15,0.39l-0.14,0.43l-0.15,0.39l-0.19,0.43l-0.29,1.16l-0.14,0.43
		l-0.1,0.63l-0.05,0.58l-0.05,0.48l0.1,0.63l0.1,0.77l0.1,0.63l0.15,0.43l0.24,0.34l0.29,0.29l0.34,0.29l0.43,0.19l0.58,0.1
		l0.58-0.05l0.48-0.19l0.29-0.15l0.43-0.24l0.34-0.24l0.58-0.58l0.34-0.39l0.29-0.34l0.34-0.34l0.24-0.34l0.24-0.39l0.29-0.43
		l0.34-0.58l0.34-0.43l0.19-0.39l0.19-0.43l0.14-0.39l0.19-0.43L72.33,48l0.24-0.53l0.19-0.43l0.15-0.39l0.68-2.03L73.77,44
		l0.39-1.54l0.14-0.63l0.15-0.48l0.1-0.53l-0.14-0.43l-0.34-0.19H73.63z"/>
	<path d="M106.63,48.19l-0.19,0.43l-0.19,0.39L106,49.4l-0.19,0.39l-0.24,0.43l-0.24,0.39l-0.24,0.34l-1.16,1.35l-0.34,0.34
		l-0.34,0.29l-0.34,0.24l-0.39,0.29l-0.34,0.24l-0.43,0.19l-0.39,0.19l-0.43,0.15l-0.34,0.1l-0.43,0.1l-0.58,0.1l-0.48,0.05
		l-0.34,0.05h-0.48l-0.43-0.05h-0.39l-0.29,0.15L96.93,55l-0.24,0.34l-0.34,0.34l-0.43,0.39l-0.48,0.39L95,56.73l-0.53,0.29
		l-0.48,0.29l-0.43,0.19l-0.63,0.14l-0.77,0.15l-0.82,0.05l-0.63,0.05h-0.48l-0.48-0.05l-0.43-0.14l-0.34-0.14l-0.43-0.19
		l-0.43-0.24l-0.72-0.53l-0.34-0.29l-0.34-0.34l-0.72-1.16l-0.14-0.43l-0.29-1.3l-0.05-0.48v-0.87l0.1-0.48l0.29-0.53l0.58-0.48
		l0.72-0.19l0.58,0.05l0.29,0.29l0.05,0.39v0.43l-0.05,0.43l0.05,0.43l0.19,0.87l0.19,0.39l0.24,0.39l0.24,0.34l0.29,0.34l0.34,0.24
		l0.39,0.19l0.39,0.15l0.43,0.1h0.48L91.67,55l0.43-0.15l0.34-0.19l0.39-0.29l0.34-0.29l0.24-0.48v-0.48l-0.24-0.34l-0.29-0.39
		l-0.19-0.39l-0.05-0.48l0.05-0.43l0.24-0.43l0.29-0.29l0.72-0.48l0.19-0.24V49.3l-0.1-0.43l-0.14-0.43l-0.15-0.39l-0.14-0.43
		l-0.1-0.39l-0.14-0.43l-0.15-0.39l-0.14-0.43l-0.15-0.39l-0.19-0.39l-0.14-0.39l-0.15-0.43L92.3,44l-0.15-0.43l-0.14-0.39
		l-0.15-0.43l-0.14-0.39l-0.14-0.48l-0.19-0.58l-0.14-0.58l-0.14-0.43L91,39.85l-0.05-0.39l-0.05-0.43l-0.1-0.29l-0.29,0.1
		l-0.68,0.68l-0.29,0.34l-0.48,0.68l-0.24,0.39l-0.24,0.34l-0.53,0.96l-0.29,0.53l-0.19,0.43l-0.24,0.34l-0.19,0.39l-0.19,0.34
		l-0.19,0.39l-0.29,0.63l-0.29,0.53l-0.19,0.43l-0.43,0.77l-0.19,0.39l-0.19,0.43l-0.29,0.53l-0.39,0.43l-0.43,0.1l-0.48-0.24
		l-0.24-0.39l0.05-0.43l0.1-0.43l0.39-0.77l0.24-0.43l0.14-0.29l0.24-0.43l0.19-0.43l0.15-0.39l0.58-1.16l0.24-0.39l0.19-0.43
		l0.29-0.53l0.34-0.53l0.24-0.43l0.24-0.39l0.19-0.39l0.24-0.43l0.19-0.24l0.24-0.43l0.24-0.34l1.16-1.35l0.58-0.63l0.29-0.34
		l0.34-0.34l0.34-0.29l0.77-0.48l0.43-0.19l0.48-0.14l0.43-0.1l0.39-0.05l0.43,0.05l0.43,0.1l0.39,0.24l0.29,0.34l0.14,0.39v0.43
		L94.86,37l-0.19,0.39l-0.24,0.39l-0.1,0.39l-0.05,0.43l0.1,0.58l0.14,0.58l0.1,0.48l0.24,0.63l0.24,0.77l0.29,0.77l0.53,1.35
		l0.19,0.43l0.19,0.58l0.29,0.53l0.19,0.43l0.15,0.39l0.14,0.43l0.43,1.16l0.14,0.43l0.1,0.63l0.1,0.77l0.1,0.63l0.05,0.48v1.21
		l0.05,0.39l0.15,0.24l0.39,0.1h0.43l0.87-0.1l0.87-0.29l0.39-0.14l0.77-0.48l0.34-0.29l0.68-0.63l0.63-0.63l0.24-0.34l0.96-1.54
		l0.19-0.39l0.19-0.43l0.14-0.39l0.24-0.39l0.43-0.29l0.58,0.14l0.43,0.48v0.48l-0.15,0.43L106.63,48.19z"/>
	<path d="M120.82,37.39l0.48-0.05l0.48,0.05l0.43,0.05l0.48,0.1l0.39,0.15l0.39,0.24l0.19,0.39l-0.14,0.58l-0.34,1.01l-0.39,0.77
		l-0.15,0.43l-0.1,0.39l-0.15,0.43l-0.19,0.39l-0.19,0.87l-0.15,0.43L121.73,44l-0.15,0.48l-0.14,0.43l-0.1,0.34l-0.14,0.43
		l-0.1,0.39l-0.1,0.43l-0.15,0.43l-0.29,1.3l-0.14,0.58l-0.15,0.63l-0.14,0.48l-0.1,0.58l-0.1,0.63l-0.05,0.48v0.43l-0.05,0.43v0.43
		l0.1,0.87l0.14,0.43l0.24,0.34l0.34,0.19l0.43,0.05l0.39-0.05l0.43-0.19l0.68-0.48l0.34-0.34l0.34-0.29l0.34-0.24l0.58-0.68
		l0.48-0.68l0.29-0.39l0.29-0.34l0.19-0.34l0.19-0.43l0.24-0.39l0.24-0.43l0.19-0.24l0.29-0.48l0.24-0.48l0.24-0.53l0.43-0.87
		l0.29-0.39l0.39-0.24l0.58,0.15l0.39,0.48l0.05,0.48l-0.15,0.43l-0.19,0.39l-0.24,0.34l-0.24,0.39L128,49.74l-0.14,0.43l-0.19,0.39
		l-0.48,0.77l-0.24,0.34l-0.48,0.77l-0.24,0.34l-0.58,0.68l-0.24,0.34l-0.29,0.39l-0.58,0.68l-0.63,0.58l-0.29,0.29l-0.68,0.58
		l-0.77,0.48l-1.16,0.58l-0.87,0.19l-0.43,0.05l-0.58-0.05l-0.58-0.15l-0.48-0.19l-0.43-0.39l-0.39-0.43l-0.29-0.43l-0.24-0.58
		l-0.19-0.77l-0.1-0.77l-0.05-0.63l0.05-0.48l0.1-0.48l-0.05-0.19l-0.14,0.24l-0.24,0.39l-0.48,0.68l-0.29,0.39l-0.87,1.01
		l-0.92,0.92l-0.29,0.34l-0.34,0.24l-0.39,0.24l-0.77,0.43l-0.77,0.39l-0.43,0.14l-1.74,0.39l-0.43,0.05l-0.43-0.05l-0.48-0.05
		l-0.43-0.05l-0.34-0.1l-0.43-0.14l-0.39-0.19l-0.68-0.48l-0.34-0.34l-0.48-0.68l-0.19-0.43L104.03,55l-0.05-0.43l-0.05-0.48v-1.3
		l0.05-0.43l0.1-0.43l0.05-0.43l0.1-0.43l0.05-0.43l0.1-0.58l0.15-0.63l0.19-0.87l0.14-0.43l0.15-0.58l0.34-1.01l0.14-0.39l0.1-0.43
		l0.14-0.43l0.05-0.39l0.68-2.03l0.15-0.48l0.53-1.59l0.14-0.39l0.14-0.43l0.24-0.58l0.15-0.58l0.14-0.43l0.19-0.39l0.34-0.24
		l0.43-0.19l0.43-0.1l0.48-0.1l0.43,0.05l0.43,0.1l0.43,0.14l0.39,0.19l0.19,0.29v0.39l-0.1,0.43l-0.14,0.43l-0.1,0.39l-0.29,0.87
		l-0.19,0.48l-0.05,0.29l-0.19,0.58l-0.15,0.24l-0.14,0.53l-0.14,0.43l-0.15,0.63l-0.19,0.63l-0.1,0.29l-0.19,0.53l-0.14,0.43
		l-0.1,0.43l-0.15,0.39L109,47.37l-0.05,0.43l-0.1,0.43l-0.15,0.43l-0.19,0.87l-0.1,0.39l-0.15,0.43l-0.1,0.43l-0.14,0.63l-0.1,0.77
		v0.87l0.1,0.77l0.39,0.68l0.63,0.39l0.58,0.1l0.87-0.19l0.39-0.19l0.34-0.14l0.39-0.19l0.43-0.24l0.39-0.24l0.68-0.58l0.29-0.29
		l0.87-1.01l0.24-0.34l0.29-0.43l0.29-0.48l0.34-0.53l0.39-0.77l0.24-0.43l0.19-0.39l0.19-0.43l0.15-0.39l0.14-0.43l0.15-0.39
		l0.14-0.43l0.15-0.39l0.19-0.43l0.14-0.39l0.19-0.87l0.14-0.43l0.14-0.39l0.15-0.43l0.14-0.39l0.19-0.43l0.1-0.43l0.1-0.39
		l0.29-0.87l0.14-0.39l0.29-0.87l0.1-0.39l0.14-0.43l0.19-0.39l0.24-0.39l0.34-0.24L120.82,37.39z"/>
	<path d="M150.35,57.84l-0.43-0.1l-0.43-0.15l-0.39-0.19l-0.39-0.29l-0.58-0.68l-0.24-0.39l-0.14-0.43l-0.05-0.43l-0.05-0.48
		l0.1-0.87l0.05-0.48l0.1-0.87l0.19-0.87l0.1-0.34l0.1-0.43l0.14-0.53l0.1-0.39l0.14-0.43l0.1-0.43l0.14-0.43l0.1-0.43l0.14-0.58
		l0.19-0.63l0.1-0.43l0.14-0.43l0.1-0.43l0.14-0.43l0.1-0.39L150.1,44l0.05-0.43l0.29-1.3l0.05-0.43l0.05-0.48l-0.05-0.43
		l-0.19-0.39l-0.29-0.29l-0.39-0.1l-0.48-0.05l-0.43,0.1l-0.39,0.15l-1.16,0.72l-0.39,0.29l-0.67,0.58l-0.29,0.34l-0.34,0.29
		l-0.29,0.34l-0.29,0.39l-0.24,0.39L144.41,44l-0.24,0.39l-0.29,0.34l-0.24,0.39l-0.19,0.39l-0.19,0.43l-0.43,0.77l-0.14,0.39
		l-0.29,0.87l-0.1,0.43l-0.19,0.58l-0.14,0.58l-0.14,0.48l-0.15,0.58l-0.19,0.58l-0.14,0.48l-0.29,1.16l-0.05,0.48l-0.14,0.63
		l-0.19,0.77l-0.19,0.63l-0.14,0.43l-0.1,0.39l-0.14,0.43l-0.19,0.39l-0.29,0.29l-0.43,0.19l-0.43,0.1l-0.48,0.05l-0.48-0.05h-0.48
		l-0.43-0.1l-0.39-0.19l-0.24-0.29l0.05-0.43l0.05-0.48l0.1-0.58l0.14-0.58l0.19-0.48l0.14-0.63l0.24-0.77l0.19-0.77l0.14-0.63
		l0.1-0.48l0.29-1.16l0.29-1.3l0.14-0.39l0.14-0.43l0.14-0.58l0.1-0.58l0.14-0.48l0.1-0.39l0.29-1.01l0.14-0.58l0.14-0.48l0.1-0.63
		l0.14-0.77v-0.82l-0.05-0.63l-0.29-0.39l-0.48-0.24l-0.58-0.1l-0.43,0.1l-0.58,0.24l-0.48,0.29l-0.34,0.34l-0.68,0.58l-0.43,0.39
		l-0.43,0.43l-0.29,0.34l-0.24,0.34l-0.19,0.39l-0.29,0.43l-0.19,0.24l-0.34,0.53l-0.34,0.48l-0.29,0.43l-0.34,0.53l-0.63,1.25
		l-0.19,0.43l-0.14,0.43l-0.1,0.43l-0.29,0.87l-0.1,0.43l-0.1,0.48l-0.29,1.3l-0.14,0.43l-0.19,0.87l-0.15,0.43l-0.1,0.48
		l-0.15,0.48l-0.1,0.43l-0.1,0.34l-0.1,0.43l-0.14,0.43l-0.15,0.48l-0.34,0.43l-0.68,0.34l-0.82,0.05l-0.77-0.05l-0.77-0.29
		l-0.48-0.48l-0.1-0.58l0.1-0.43l0.19-0.48l0.1-0.29l0.14-0.48l0.1-0.43l0.14-0.63l0.15-0.58l0.1-0.43l0.29-0.87l0.1-0.39l0.14-0.43
		l0.1-0.43l0.14-0.39l0.1-0.43l0.14-0.43l0.15-0.63l0.14-0.58l0.1-0.43l0.29-0.87l0.14-0.63l0.15-0.58l0.14-0.43l0.1-0.43l0.05-0.43
		l0.14-0.43l0.1-0.43l0.19-0.58l0.19-0.63l0.19-0.87l0.1-0.39l0.48-2.17l0.14-0.39l0.19-0.43l0.34-0.24l0.48-0.15l0.48-0.1l0.96,0.1
		l0.48,0.1l0.43,0.19l0.39,0.29l0.19,0.34l-0.05,0.43l-0.15,0.48l-0.14,0.43l-0.1,0.43l-0.14,0.43l-0.1,0.48l-0.14,0.43l-0.19,0.87
		l-0.05,0.29l0.19-0.1l0.24-0.43l0.29-0.39l0.24-0.39l0.29-0.34l0.24-0.39l0.29-0.34l0.34-0.43l0.29-0.29l0.24-0.29l0.68-0.58
		l0.77-0.53l0.34-0.24l0.39-0.24l0.43-0.19l0.39-0.14l0.48-0.15l0.48-0.05h0.82l0.43,0.05l0.43,0.1l0.39,0.14l0.39,0.19l0.34,0.24
		l0.29,0.29l0.29,0.34l0.39,0.77l0.15,0.39l0.14,0.43l0.05,0.43v0.43l-0.05,0.58l-0.05,0.63l-0.05,0.34h0.05l0.19-0.24l0.29-0.39
		l0.29-0.34l0.53-0.68l0.34-0.39l0.19-0.24l0.63-0.72l0.29-0.34l0.34-0.24l0.72-0.58l0.39-0.29l0.34-0.24l0.39-0.19l0.43-0.19
		l0.43-0.1l0.58-0.1l0.82-0.05l0.34-0.05h0.43l0.43,0.1l0.58,0.15l0.58,0.24l0.43,0.29l0.29,0.29l0.24,0.39l0.19,0.39l0.1,0.39
		l0.14,0.43l0.05,0.43l0.05,0.39v0.87l-0.05,0.43l-0.05,0.48l-0.19,0.87l-0.14,0.63l-0.72,2.32l-0.19,0.63l-0.14,0.43l-0.1,0.63
		L153,48.29l-0.14,0.48l-0.19,0.58l-0.14,0.58l-0.14,0.48l-0.24,1.16l-0.1,0.48l-0.1,0.63l-0.1,0.82l0.05,0.77l0.14,0.58l0.29,0.29
		l0.48-0.05l0.39-0.1l0.34-0.19l0.39-0.19l0.39-0.29l0.34-0.24l0.67-0.68l0.24-0.34l0.58-0.77l0.24-0.24l0.29-0.39l1.69-2.7
		l0.19-0.43l0.43-0.87l0.14-0.24l0.29-0.43l0.19-0.39l0.43-0.24l0.58,0.1l0.39,0.48v0.48l-0.19,0.43l-0.24,0.43l-0.15,0.39
		l-0.19,0.34l-0.43,0.87l-0.34,0.58l-0.29,0.48l-0.24,0.39l-0.24,0.34l-0.72,1.16l-0.24,0.34l-0.48,0.72l-0.29,0.39l-0.53,0.68
		l-0.63,0.63l-0.29,0.34l-0.29,0.29l-0.68,0.58l-0.39,0.24L153,57.6l-0.43,0.15l-0.39,0.1l-0.48,0.05h-0.96L150.35,57.84z"/>
	<path d="M182.14,57.84l-0.43-0.1l-0.43-0.15l-0.39-0.19l-0.39-0.29l-0.58-0.68l-0.24-0.39l-0.14-0.43l-0.05-0.43l-0.05-0.48
		l0.1-0.87l0.05-0.48l0.1-0.87l0.19-0.87l0.1-0.34l0.1-0.43l0.14-0.53l0.1-0.39l0.14-0.43l0.1-0.43l0.14-0.43l0.1-0.43l0.14-0.58
		l0.19-0.63l0.1-0.43l0.14-0.43l0.1-0.43l0.14-0.43l0.1-0.39L181.9,44l0.05-0.43l0.29-1.3l0.05-0.43l0.05-0.48l-0.05-0.43
		l-0.19-0.39l-0.29-0.29l-0.39-0.1l-0.48-0.05l-0.43,0.1l-0.39,0.15l-1.16,0.72l-0.39,0.29l-0.67,0.58l-0.29,0.34l-0.34,0.29
		l-0.29,0.34l-0.29,0.39l-0.24,0.39L176.21,44l-0.24,0.39l-0.29,0.34l-0.24,0.39l-0.19,0.39l-0.19,0.43l-0.43,0.77l-0.14,0.39
		l-0.29,0.87l-0.1,0.43l-0.19,0.58l-0.14,0.58l-0.14,0.48l-0.15,0.58l-0.19,0.58l-0.14,0.48l-0.29,1.16l-0.05,0.48l-0.14,0.63
		l-0.19,0.77l-0.19,0.63l-0.14,0.43l-0.1,0.39l-0.14,0.43l-0.19,0.39l-0.29,0.29l-0.43,0.19l-0.43,0.1l-0.48,0.05l-0.48-0.05h-0.48
		l-0.43-0.1l-0.39-0.19l-0.24-0.29l0.05-0.43l0.05-0.48l0.1-0.58l0.14-0.58l0.19-0.48l0.14-0.63l0.24-0.77l0.19-0.77l0.14-0.63
		l0.1-0.48l0.29-1.16l0.29-1.3l0.14-0.39l0.14-0.43l0.14-0.58l0.1-0.58l0.14-0.48l0.1-0.39l0.29-1.01l0.14-0.58l0.14-0.48l0.1-0.63
		l0.14-0.77v-0.82l-0.05-0.63l-0.29-0.39l-0.48-0.24l-0.58-0.1l-0.43,0.1l-0.58,0.24l-0.48,0.29l-0.34,0.34l-0.68,0.58l-0.43,0.39
		l-0.43,0.43l-0.29,0.34l-0.24,0.34l-0.19,0.39l-0.29,0.43l-0.19,0.24l-0.34,0.53l-0.34,0.48l-0.29,0.43l-0.34,0.53l-0.63,1.25
		l-0.19,0.43l-0.14,0.43l-0.1,0.43l-0.29,0.87l-0.1,0.43l-0.1,0.48l-0.29,1.3l-0.14,0.43l-0.19,0.87l-0.15,0.43l-0.1,0.48
		l-0.15,0.48l-0.1,0.43l-0.1,0.34l-0.1,0.43l-0.14,0.43l-0.15,0.48l-0.34,0.43l-0.68,0.34l-0.82,0.05l-0.77-0.05l-0.77-0.29
		l-0.48-0.48l-0.1-0.58l0.1-0.43l0.19-0.48l0.1-0.29l0.15-0.48l0.1-0.43l0.15-0.63l0.14-0.58l0.1-0.43l0.29-0.87l0.1-0.39l0.14-0.43
		l0.1-0.43l0.14-0.39l0.1-0.43l0.14-0.43l0.14-0.63l0.15-0.58l0.1-0.43l0.29-0.87l0.14-0.63l0.14-0.58l0.15-0.43l0.1-0.43l0.05-0.43
		l0.14-0.43l0.1-0.43l0.19-0.58l0.19-0.63l0.19-0.87l0.1-0.39l0.48-2.17l0.14-0.39l0.19-0.43l0.34-0.24l0.48-0.15l0.48-0.1l0.96,0.1
		l0.48,0.1l0.43,0.19l0.39,0.29l0.19,0.34l-0.05,0.43l-0.15,0.48l-0.14,0.43l-0.1,0.43l-0.14,0.43l-0.1,0.48l-0.14,0.43l-0.19,0.87
		l-0.05,0.29l0.19-0.1l0.24-0.43l0.29-0.39l0.24-0.39l0.29-0.34l0.24-0.39l0.29-0.34l0.34-0.43l0.29-0.29l0.24-0.29l0.68-0.58
		l0.77-0.53l0.34-0.24l0.39-0.24l0.43-0.19l0.39-0.14l0.48-0.15l0.48-0.05h0.82l0.43,0.05l0.43,0.1l0.39,0.14l0.39,0.19l0.34,0.24
		l0.29,0.29l0.29,0.34l0.39,0.77l0.15,0.39l0.14,0.43l0.05,0.43v0.43l-0.05,0.58l-0.05,0.63l-0.05,0.34h0.05l0.19-0.24l0.29-0.39
		l0.29-0.34l0.53-0.68l0.34-0.39l0.19-0.24l0.63-0.72l0.29-0.34l0.34-0.24l0.72-0.58l0.39-0.29l0.34-0.24l0.39-0.19l0.43-0.19
		l0.43-0.1l0.58-0.1l0.82-0.05l0.34-0.05h0.43l0.43,0.1l0.58,0.15l0.58,0.24l0.43,0.29l0.29,0.29l0.24,0.39l0.19,0.39l0.1,0.39
		l0.14,0.43l0.05,0.43l0.05,0.39v0.87l-0.05,0.43l-0.05,0.48l-0.19,0.87l-0.14,0.63l-0.72,2.32l-0.19,0.63l-0.14,0.43l-0.1,0.63
		l-0.14,0.53l-0.14,0.48l-0.19,0.58l-0.14,0.58l-0.14,0.48l-0.24,1.16l-0.1,0.48l-0.1,0.63l-0.1,0.82l0.05,0.77l0.14,0.58l0.29,0.29
		l0.48-0.05l0.39-0.1l0.34-0.19l0.39-0.19l0.39-0.29l0.34-0.24l0.67-0.68l0.24-0.34l0.58-0.77l0.24-0.24l0.29-0.39l1.69-2.7
		l0.19-0.43l0.43-0.87l0.14-0.24l0.29-0.43l0.19-0.39l0.43-0.24l0.58,0.1l0.39,0.48v0.48l-0.19,0.43l-0.24,0.43l-0.15,0.39
		l-0.19,0.34l-0.43,0.87l-0.34,0.58l-0.29,0.48l-0.24,0.39l-0.24,0.34l-0.72,1.16l-0.24,0.34l-0.48,0.72l-0.29,0.39l-0.53,0.68
		l-0.63,0.63l-0.29,0.34l-0.29,0.29l-0.68,0.58l-0.39,0.24l-1.16,0.58l-0.43,0.15l-0.39,0.1l-0.48,0.05h-0.96L182.14,57.84z"/>
	<path d="M206.7,45.83l-0.24,0.34l-0.58,0.68l-0.67,0.58l-0.34,0.24l-0.43,0.24l-0.29,0.1l-0.48,0.29l-0.29,0.14l-0.43,0.19
		l-0.48,0.15l-0.43,0.14l-0.43,0.05l-0.48,0.1l-0.53,0.05l-0.58,0.1l-0.43,0.05h-0.43l-0.87-0.1l-0.87-0.05l-0.43-0.05l-1.3-0.29
		h-0.34l-0.24,0.19l-0.1,0.34v0.43l-0.05,0.48v0.82l0.05,0.48l0.1,0.39l0.29,0.87l0.48,0.77l0.29,0.34l0.29,0.29l0.77,0.48
		l0.48,0.14l0.43,0.15l0.34,0.05l0.43,0.1l0.43,0.05h0.48l0.43-0.05l1.25-0.24l0.43-0.1l0.43-0.14l0.39-0.14l0.82-0.34l0.77-0.39
		l0.68-0.53l0.34-0.24l0.34-0.29l0.67-0.63l0.58-0.68l0.24-0.34l0.29-0.39l0.48-0.68l0.24-0.39l0.19-0.39l0.24-0.39l0.19-0.39
		l0.24-0.34l0.19-0.39l0.19-0.43l0.19-0.39l0.24-0.39l0.34-0.24h0.43l0.43,0.29l0.24,0.43l-0.05,0.43l-0.19,0.43l-0.24,0.53
		l-0.29,0.53l-0.24,0.53l-0.29,0.53l-0.29,0.48l-0.48,0.77l-0.14,0.29l-0.29,0.43l-0.48,0.68l-0.29,0.34l-0.29,0.29l-0.29,0.34
		l-0.34,0.39l-0.14,0.19l-0.34,0.39l-0.29,0.34l-0.67,0.58l-0.48,0.39l-0.43,0.39L204,56.73l-1.21,0.53l-0.39,0.14l-0.43,0.15
		l-0.63,0.1l-0.58,0.15l-1.01,0.1l-0.63,0.05l-0.53,0.05h-0.43l-1.74-0.19l-0.39-0.1l-0.43-0.14l-0.43-0.19l-0.39-0.19l-0.77-0.43
		l-0.39-0.19l-0.34-0.29l-0.34-0.34l-0.19-0.24l-0.34-0.39l-0.29-0.34l-0.24-0.39l-0.19-0.34l-0.19-0.43l-0.14-0.39l-0.14-0.43
		l-0.1-0.43l-0.1-0.39l-0.1-0.43l-0.14-1.3V49.5l0.05-0.43v-0.43l0.29-1.3l0.14-0.39l0.1-0.43l0.14-0.43l0.1-0.43l0.14-0.43
		l0.19-0.53l0.24-0.58l0.24-0.43l0.29-0.53l0.34-0.48l0.19-0.43l0.24-0.34l0.29-0.34l0.72-0.77l0.72-0.72l0.39-0.34l0.43-0.34
		l0.48-0.34l0.43-0.34l0.48-0.29l0.48-0.24l0.43-0.19l0.63-0.29l1.01-0.34l0.87-0.19l0.63-0.1h1.06l0.63,0.1l0.77,0.14l0.63,0.15
		l0.43,0.14l0.43,0.19l0.39,0.19l0.29,0.19l0.68,0.58l0.29,0.34l0.29,0.48l0.24,0.58l0.14,0.43l0.1,0.43l0.05,0.43v0.58l-0.05,0.63
		l-0.05,0.48l-0.15,0.58l-0.19,0.58l-0.19,0.48l-0.14,0.24l-0.24,0.43L206.7,45.83z M200.82,40.04l-0.68,0.29l-0.58,0.29l-0.39,0.24
		l-0.68,0.58l-0.43,0.43l-0.39,0.43l-0.34,0.39L197,43.22l-0.34,0.48l-0.24,0.43l-0.29,0.53l-0.19,0.58l-0.19,0.43l-0.14,0.39
		l-0.05,0.34l0.24,0.24l0.63,0.14l0.96,0.05l0.48,0.05h1.35l0.48-0.1l0.43-0.1l0.48-0.19l0.29-0.1l0.48-0.24l0.34-0.24l0.34-0.29
		l0.34-0.34l0.34-0.29l0.29-0.39l0.24-0.34l0.19-0.39l0.24-0.43L204,42.6l0.1-0.48l0.05-0.43l-0.05-0.48l-0.19-0.43l-0.29-0.34
		l-0.39-0.29l-0.43-0.19l-0.43-0.1l-0.43-0.05l-0.48,0.1L200.82,40.04z"/>
	<path d="M212.35,36.23l-0.43-1.3l-0.05-0.43v-0.43l0.1-0.43l0.19-0.43l0.24-0.34l0.29-0.34l0.34-0.29l0.39-0.19l0.43-0.1h0.43
		l0.43,0.1l0.39,0.24l0.29,0.29l0.19,0.39l0.14,0.43v1.3l-0.1,0.48v0.39l0.1,0.39l0.24,0.34l0.34,0.34l0.34,0.29l0.34,0.39
		l0.53,0.63l0.34,0.29l0.63,0.63l0.34,0.39l0.19,0.24l0.34,0.39l0.34,0.29l0.29,0.34l0.48,0.77l0.14,0.43l0.14,0.58l0.14,0.63
		l-0.05,0.43l-0.14,0.43l-0.19,0.39l-0.29,0.34l-0.48,0.77l-0.29,0.34l-0.24,0.39l-0.24,0.34l-0.29,0.39l-0.24,0.39l-0.29,0.39
		l-0.24,0.39l-0.82,1.64l-0.14,0.43l-0.14,0.39l-0.1,0.43l-0.1,0.48l-0.1,0.43l-0.05,0.43v0.48l0.19,0.96l0.24,0.39l0.24,0.43
		l0.34,0.29l0.39,0.24l0.48,0.1h0.92l0.43-0.1l0.43-0.15l0.43-0.19l0.34-0.24l0.72-0.48l0.39-0.29l0.34-0.29l0.29-0.29l0.29-0.39
		l0.87-1.01l0.72-1.16l0.24-0.34l0.24-0.43l0.24-0.39l0.19-0.39l0.24-0.43l0.14-0.29l0.29-0.53l0.19-0.39l0.14-0.39l0.19-0.39
		l0.43-0.24l0.63,0.14l0.43,0.48v0.53l-0.14,0.43l-0.39,0.82l-0.19,0.39l-0.24,0.39l-0.39,0.77l-0.48,0.77l-0.24,0.43l-0.19,0.24
		l-0.24,0.43l-0.48,0.77l-0.58,0.77l-0.39,0.53l-0.34,0.48l-0.58,0.68l-0.34,0.29l-0.58,0.58l-0.39,0.29l-0.43,0.29l-0.77,0.39
		l-0.43,0.19l-0.39,0.19l-0.43,0.14l-0.39,0.1l-0.48,0.1h-1.11l-0.63-0.05l-0.96-0.19l-0.39-0.14l-0.48-0.24l-0.72-0.48l-0.34-0.29
		l-0.29-0.29l-0.29-0.39l-0.24-0.34L212.98,55l-0.19-0.39l-0.1-0.43l-0.1-0.48l-0.1-0.43l-0.05-0.43v-0.43l0.19-1.74l0.14-0.43
		l0.14-0.39l0.19-0.43l0.24-0.53l0.29-0.53l0.24-0.43l0.34-0.53l0.34-0.48l0.24-0.43l0.29-0.53l0.39-0.53l0.29-0.39l0.39-0.68
		l0.53-0.77l0.24-0.53l0.14-0.72l-0.1-0.58l-0.48-0.77l-0.29-0.39l-0.77-0.87l-0.29-0.34l-0.39-0.29l-0.39,0.1l-0.19,0.43l-0.1,0.43
		l-0.14,0.43l-0.1,0.43l-0.1,0.39l-0.14,0.43l-0.43,1.16l-0.14,0.43l-0.14,0.39l-0.14,0.43l-0.24,0.58l-0.24,0.53l-0.19,0.43
		l-0.24,0.58l-0.24,0.53l-0.24,0.48l-0.24,0.53l-0.29,0.53l-0.24,0.39l-0.29,0.24h-0.43l-0.39-0.24l-0.29-0.34l0.05-0.39l0.14-0.43
		l0.19-0.43l0.14-0.39l0.14-0.43l0.39-0.87l0.14-0.29l0.19-0.48l0.19-0.39l0.14-0.43l0.19-0.43l0.14-0.43l0.14-0.39l0.39-0.87
		l0.1-0.43l0.15-0.43l0.1-0.43l0.19-0.43l0.1-0.43l0.1-0.39l0.1-0.43l0.14-0.43l0.1-0.48v-0.43l-0.1-0.39L212.35,36.23z"/>
</g>
<g>
	<path d="M100.73,0.08L101.45,0l0.4,0.04h0.24l0.44,0.04h0.36l0.36,0.04l1.4,0.24l0.4,0.08L106,0.68l0.36,0.16l0.4,0.12L107,1.04
		l0.4,0.16l0.68,0.28l0.64,0.24l0.64,0.32l0.36,0.16l0.4,0.16l0.72,0.28l0.48,0.2l0.72,0.24l0.36,0.16l0.44,0.12l0.48,0.12
		l0.44,0.12l0.36,0.04l0.4,0.08l0.52,0.04h0.64l0.68-0.04L117,3.6l0.48-0.08l0.32-0.2l0.2-0.24l0.12-0.32l0.16-0.36l0.16-0.32
		l0.2-0.32l0.2-0.28l0.24-0.24l0.84-0.72l0.32-0.16l0.36-0.04l0.36,0.04l0.36,0.12l0.32,0.16l0.28,0.2l0.2,0.28l0.12,0.36l0.04,0.36
		l-0.08,0.32l-0.08,0.36L122,2.88l-0.16,0.32l-0.2,0.28l-0.24,0.28l-0.24,0.32l-0.24,0.4l-0.2,0.48l-0.28,0.84l-0.12,0.48
		l-0.08,0.36l-0.12,0.32L120,7.32l-0.08,0.32L119.84,8l-0.44,1.32l-0.12,0.48l-0.12,0.52l-0.08,0.36L119,11l-0.12,0.36l-0.08,0.32
		l-0.12,0.36l-0.16,0.52l-0.2,0.6l-0.16,0.52l-0.12,0.36l-0.12,0.52l-0.08,0.48l0.08,0.12l0.24-0.28l0.2-0.28l0.24-0.28l0.6-0.64
		l0.4-0.4l0.36-0.4l0.32-0.28l0.24-0.24l0.32-0.24l0.44-0.32l0.52-0.32l0.48-0.2l0.36-0.16l0.52-0.16l0.6-0.08h0.52l0.4-0.04
		l0.36,0.08l0.32,0.08l0.36,0.12l0.32,0.16l0.28,0.2l0.28,0.24l0.24,0.28l0.2,0.32l0.2,0.44l0.12,0.48l0.08,0.4l0.04,0.48
		l-0.04,0.52l-0.08,0.72l-0.04,0.4l-0.08,0.48l-0.12,0.52l-0.08,0.36l-0.12,0.32l-0.56,1.68l-0.12,0.48l-0.12,0.36l-0.08,0.36
		l-0.12,0.48l-0.12,0.4l-0.24,0.96l-0.08,0.36l-0.12,0.52l-0.08,0.48l-0.16,0.72l-0.04,0.36v0.36l0.04,0.32l0.12,0.36l0.24,0.16
		l0.36,0.04l0.36-0.08l0.32-0.16l0.32-0.2l0.56-0.48l0.52-0.52l0.28-0.24l0.28-0.28l0.24-0.28l0.4-0.56l0.6-0.96l0.24-0.32
		l0.16-0.32l0.4-0.6l0.2-0.32l0.32-0.68l0.16-0.36l0.12-0.32l0.2-0.32l0.36-0.2l0.52,0.12l0.32,0.4l0.04,0.44l-0.12,0.36l-0.2,0.32
		l-0.16,0.32l-0.2,0.28l-0.16,0.36l-0.2,0.32l-0.32,0.64l-0.24,0.28l-0.2,0.32l-0.16,0.32l-0.2,0.32l-0.24,0.28l-0.24,0.36
		l-0.12,0.2l-0.24,0.36l-0.24,0.28l-0.2,0.28l-0.48,0.56l-0.52,0.56l-0.24,0.28l-0.28,0.24l-0.88,0.64l-0.32,0.16l-0.36,0.16
		l-0.68,0.2l-0.32,0.12l-0.36,0.04l-0.4,0.04h-0.4l-0.72-0.16L123,27.88l-0.32-0.2l-0.28-0.24l-0.24-0.28L122,26.84l-0.12-0.36
		l-0.16-0.72l-0.04-0.4L121.64,25l0.04-0.36l0.08-0.4l0.08-0.32l0.4-1.8l0.12-0.36l0.04-0.32l0.08-0.36l0.16-0.4l0.08-0.24l0.12-0.4
		l0.12-0.52l0.12-0.48l0.16-0.72l0.12-0.36l0.08-0.36l0.12-0.4l0.16-0.52l0.12-0.44l0.16-0.72v-0.76l-0.04-0.36l-0.12-0.36
		l-0.2-0.28l-0.28-0.24L123,13.44h-0.36l-0.36,0.08l-0.4,0.16L121.24,14l-0.28,0.2l-0.6,0.4l-0.2,0.16L119.8,15l-0.76,0.76l-1.2,1.4
		l-0.2,0.28l-0.24,0.28l-0.24,0.36l-0.2,0.36l-0.16,0.4l-0.2,0.64l-0.2,0.68l-0.16,0.64l-0.16,0.48l-0.12,0.4l-0.12,0.48l-0.08,0.48
		l-0.16,0.44l-0.12,0.48l-0.2,0.6l-0.16,0.68l-0.2,0.68l-0.16,0.64l-0.12,0.68l-0.2,0.44l-0.28,0.24l-0.52,0.16L113,27.76h-0.64
		l-0.6-0.16l-0.4-0.4l-0.04-0.48l0.12-0.4l0.12-0.48l0.16-0.52l0.12-0.4L112,24.2l0.08-0.32l0.24-0.72l0.08-0.32l0.08-0.36
		l0.12-0.36l0.08-0.36l0.08-0.32l0.08-0.36l0.24-0.72l0.08-0.32l0.16-0.72l0.24-0.72l0.16-0.72l0.12-0.52l0.12-0.48l0.24-0.72
		l0.08-0.36l0.12-0.36l0.08-0.32l0.12-0.36l0.16-0.72l0.24-0.68l0.08-0.36l0.12-0.4l0.08-0.24l0.12-0.4l0.16-0.72l0.12-0.36
		l0.08-0.36l0.08-0.32l0.12-0.36l0.12-0.32l0.12-0.36l0.16-0.72l0.12-0.32l0.12-0.36l0.08-0.36l0.12-0.32l0.24-0.72l0.04-0.28
		l-0.12-0.12L116.52,6l-0.56,0.08l-0.4,0.04h-1.12l-0.36-0.04l-0.72-0.16l-0.4-0.08l-0.4-0.12l-0.24-0.08l-0.4-0.08l-0.36-0.08
		l-0.36-0.12l-0.32-0.08l-0.2,0.12l-0.16,0.24l-0.24,0.72l-0.12,0.52l-0.12,0.48l-0.08,0.4l-0.16,0.72l-0.12,0.48l-0.16,0.52
		l-0.24,0.72l-0.04,0.36l-0.08,0.36l-0.28,0.84l-0.12,0.52l-0.24,1.08l-0.12,0.36l-0.08,0.36l-0.12,0.32l-0.04,0.36l-0.08,0.36
		l-0.12,0.36l-0.08,0.32l-0.08,0.36l-0.24,0.72l-0.08,0.36l-0.08,0.32l-0.24,0.72l-0.12,0.32l-0.08,0.36l-0.24,0.72L106.6,20
		l-0.24,0.72l-0.08,0.32l-0.24,0.72l-0.12,0.32l-0.12,0.36l-0.16,0.32l-0.16,0.36L105,24.08l-0.2,0.36l-0.24,0.44l-0.28,0.44
		l-0.24,0.32l-0.48,0.56l-0.52,0.52l-0.56,0.48l-0.32,0.2l-0.6,0.24l-0.4,0.12l-0.44,0.12l-0.64,0.16l-0.72,0.16h-0.72l-0.4-0.04
		l-0.52-0.08l-0.6-0.12l-0.28-0.08l-0.6-0.12l-0.52-0.24l-0.44-0.24l-0.56-0.48l-0.24-0.24l-0.28-0.24l-0.24-0.28l-0.16-0.28
		l-0.32-0.64l-0.24-0.64l-0.16-0.72l-0.04-0.32v-0.36l0.04-0.4l0.12-0.48l0.12-0.52l0.08-0.36L93.53,21l0.16-0.32l0.2-0.32l0.2-0.28
		l0.16-0.32l0.2-0.28l0.24-0.28l0.28-0.24l0.24-0.24l0.28-0.24l0.44-0.16h0.44l0.36,0.12l0.56,0.4l0.16,0.32l-0.04,0.32l-0.2,0.48
		l-0.32,0.6l-0.28,0.6l-0.24,0.6l-0.12,0.52l-0.04,0.4l0.04,0.48l0.08,0.48l0.16,0.4l0.24,0.44l0.44,0.48l0.52,0.4l0.6,0.28
		l0.48,0.08h0.76l0.36-0.08l0.32-0.12l0.36-0.24l0.2-0.12l0.32-0.28l0.48-0.56l0.24-0.32l0.16-0.32l0.4-0.64l0.12-0.36l0.12-0.32
		l0.24-0.72l0.12-0.32l0.16-0.36l0.12-0.32l0.16-0.36l0.08-0.36l0.12-0.36l0.08-0.36l0.36-1.08l0.16-0.72l0.08-0.52l0.16-0.48
		l0.08-0.4l0.32-0.96l0.12-0.4l0.12-0.52l0.12-0.48l0.08-0.4l0.16-0.48l0.12-0.48l0.16-0.4l0.16-0.48l0.12-0.52l0.16-0.72l0.04-0.36
		l0.08-0.36l0.12-0.36l0.2-0.68l0.08-0.36l0.44-1.32L107.28,6l0.12-0.36l0.08-0.36l0.08-0.32l0.12-0.36l0.04-0.32l-0.16-0.24
		l-0.4-0.24l-0.88-0.36l-0.36-0.12l-0.44-0.16l-0.24-0.04l-0.48-0.16l-0.96-0.36l-0.4-0.08l-0.72-0.08l-0.4-0.04h-0.36l-0.4,0.04
		l-0.72,0.08l-0.36,0.08l-0.36,0.12l-0.48,0.24l-0.56,0.32l-0.44,0.28L98.33,3.8l-0.24,0.28l-0.2,0.32l-0.12,0.24L97.61,5
		l-0.08,0.36v0.32l0.08,0.36l0.12,0.32l0.2,0.32l0.24,0.24l0.28,0.24l0.36,0.16l0.48,0.08l0.4,0.08h0.4l0.44-0.08l0.4-0.08
		l0.48-0.16l0.44-0.12l0.36-0.16l0.44-0.08l0.48,0.2l0.32,0.48l0.04,0.56l-0.36,0.48l-0.56,0.36l-0.52,0.24l-0.8,0.36l-0.6,0.2
		l-0.48,0.12l-0.92,0.08h-0.48l-0.4-0.04l-0.44-0.08l-0.36-0.08l-0.4-0.16l-0.6-0.32l-0.52-0.4l-0.64-0.64l-0.6-0.84l-0.12-0.36
		l-0.08-0.52L94.53,5.8l0.04-0.52l0.04-0.4l0.08-0.48l0.28-0.84l0.24-0.44l0.28-0.4l0.28-0.32l0.32-0.36l0.36-0.32l0.32-0.28
		l0.44-0.24L97.65,1l1-0.4l0.44-0.16l0.36-0.08l0.4-0.12l0.48-0.12L100.73,0.08z"/>
	<path d="M144.13,18.12l-0.2,0.28l-0.48,0.56l-0.56,0.48l-0.28,0.2l-0.36,0.2l-0.24,0.08l-0.4,0.24l-0.24,0.12l-0.36,0.16l-0.4,0.12
		l-0.36,0.12l-0.36,0.04l-0.4,0.08l-0.44,0.04l-0.48,0.08l-0.36,0.04h-0.36l-0.72-0.08l-0.72-0.04l-0.36-0.04l-1.08-0.24h-0.28
		l-0.2,0.16L134.41,21v0.36l-0.04,0.4v0.68l0.04,0.4l0.08,0.32l0.24,0.72l0.4,0.64l0.24,0.28l0.24,0.24l0.64,0.4l0.4,0.12l0.36,0.12
		l0.28,0.04l0.36,0.08l0.36,0.04h0.4l0.36-0.04l1.04-0.2l0.36-0.08l0.36-0.12l0.32-0.12l0.68-0.28l0.64-0.32l0.56-0.44l0.28-0.2
		l0.28-0.24l0.56-0.52l0.48-0.56l0.2-0.28l0.24-0.32l0.4-0.56l0.2-0.32l0.16-0.32l0.2-0.32l0.16-0.32l0.2-0.28l0.16-0.32l0.16-0.36
		l0.16-0.32l0.2-0.32l0.28-0.2h0.36l0.36,0.24l0.2,0.36l-0.04,0.36l-0.16,0.36l-0.2,0.44l-0.24,0.44l-0.2,0.44l-0.24,0.44l-0.24,0.4
		l-0.4,0.64l-0.12,0.24l-0.24,0.36l-0.4,0.56l-0.24,0.28l-0.24,0.24l-0.24,0.28l-0.28,0.32l-0.12,0.16l-0.28,0.32l-0.24,0.28
		l-0.56,0.48l-0.4,0.32l-0.36,0.32l-0.64,0.4l-1,0.44l-0.32,0.12l-0.36,0.12l-0.52,0.08l-0.48,0.12l-0.84,0.08l-0.52,0.04
		l-0.44,0.04h-0.36l-1.44-0.16l-0.32-0.08l-0.36-0.12l-0.36-0.16l-0.32-0.16l-0.64-0.36L133.29,27l-0.28-0.24l-0.28-0.28l-0.16-0.2
		l-0.28-0.32l-0.24-0.28l-0.2-0.32l-0.16-0.28l-0.16-0.36l-0.12-0.32l-0.12-0.36l-0.08-0.36l-0.08-0.32L131.05,23l-0.12-1.08v-0.76
		l0.04-0.36v-0.36l0.24-1.08l0.12-0.32l0.08-0.36l0.12-0.36l0.08-0.36l0.12-0.36l0.16-0.44l0.2-0.48l0.2-0.36l0.24-0.44l0.28-0.4
		l0.16-0.36l0.2-0.28l0.24-0.28l0.6-0.64l0.6-0.6l0.32-0.28l0.36-0.28l0.4-0.28l0.36-0.28l0.4-0.24l0.4-0.2l0.36-0.16l0.52-0.24
		l0.84-0.28l0.72-0.16l0.52-0.08h0.88l0.52,0.08l0.64,0.12l0.52,0.12l0.36,0.12l0.36,0.16l0.32,0.16l0.24,0.16l0.56,0.48l0.24,0.28
		l0.24,0.4l0.2,0.48l0.12,0.36l0.08,0.36l0.04,0.36v0.48l-0.04,0.52l-0.04,0.4l-0.12,0.48l-0.16,0.48l-0.16,0.4l-0.12,0.2l-0.2,0.36
		L144.13,18.12z M139.25,13.32l-0.56,0.24l-0.48,0.24l-0.32,0.2l-0.56,0.48l-0.36,0.36l-0.32,0.36l-0.28,0.32l-0.28,0.44l-0.28,0.4
		l-0.2,0.36l-0.24,0.44l-0.16,0.48L135.05,18l-0.12,0.32l-0.04,0.28l0.2,0.2l0.52,0.12l0.8,0.04l0.4,0.04h1.12l0.4-0.08l0.36-0.08
		l0.4-0.16l0.24-0.08l0.4-0.2l0.28-0.2l0.28-0.24l0.28-0.28l0.28-0.24l0.24-0.32l0.2-0.28l0.16-0.32l0.2-0.36l0.24-0.72l0.08-0.4
		l0.04-0.36l-0.04-0.4l-0.16-0.36l-0.24-0.28l-0.32-0.24l-0.36-0.16l-0.36-0.08l-0.36-0.04l-0.4,0.08L139.25,13.32z"/>
</g>
<g>
	<path d="M138.3,61.1l0.72,0.08l0.4,0.12l0.36,0.12l0.32,0.16l0.28,0.24l0.08,0.32l-0.08,0.32l-0.16,0.4l-0.08,0.24l-0.16,0.4
		l-0.12,0.32l-0.12,0.36l-0.12,0.32l-0.16,0.32l-0.16,0.36l-0.16,0.32l-0.24,0.72l-0.08,0.32l-0.12,0.36l-0.08,0.36l-0.12,0.32
		l-0.24,0.72l-0.2,0.48l-0.16,0.48l-0.16,0.36l-0.12,0.36l-0.08,0.36l-0.12,0.36l-0.08,0.32l-0.24,0.72l-0.12,0.32l-0.08,0.36
		l-0.12,0.36l-0.04,0.32l-0.12,0.36l-0.04,0.24l0.2-0.04l0.36-0.16l0.32-0.28l0.4-0.24l0.44-0.28l0.36-0.16l0.44-0.2l0.48-0.16
		l0.4-0.12l0.52-0.08l0.64-0.12l0.68-0.04h0.52l0.4,0.04l0.72,0.16l0.32,0.16l0.36,0.16l0.32,0.2l0.28,0.2l0.48,0.56l0.2,0.28
		l0.24,0.28l0.2,0.32l0.12,0.36l0.16,0.32l0.08,0.36l0.12,0.36l0.04,0.32l0.08,0.36l0.04,0.4l0.04,0.36v0.36l-0.04,0.36v0.36
		l-0.04,0.36l-0.04,0.4l-0.16,0.72l-0.04,0.4l-0.16,0.72l-0.24,0.72l-0.08,0.36l-0.32,0.72l-0.12,0.36l-0.16,0.32l-0.32,0.72
		l-0.24,0.32l-0.12,0.28l0.08,0.16l0.28,0.08l0.36-0.04l0.4-0.04l0.36-0.04l0.36-0.12l0.32-0.12l0.36-0.12l0.32-0.2l0.56-0.48
		l0.28-0.2l0.56-0.56l0.2-0.28l0.2-0.32l0.24-0.32l0.4-0.64l0.2-0.28l0.16-0.32l0.2-0.36l0.12-0.32l0.2-0.32l0.32-0.2l0.48,0.08
		l0.32,0.36l0.08,0.44l-0.12,0.36l-0.32,0.64l-0.2,0.32l-0.16,0.32l-0.2,0.32l-0.24,0.32l-0.16,0.2l-0.24,0.36l-0.2,0.32l-0.24,0.32
		l-0.24,0.28l-0.24,0.24l-0.24,0.2l-0.28,0.24l-0.32,0.28l-0.28,0.28l-0.28,0.2l-0.32,0.16l-0.68,0.28l-0.36,0.12l-0.32,0.08
		l-0.36,0.04l-0.4,0.04l-0.36,0.04h-0.64l-0.44-0.04l-0.72-0.08l-0.32,0.08l-0.28,0.2l-0.24,0.24l-0.56,0.48l-0.32,0.2l-0.36,0.24
		l-0.6,0.36l-0.28,0.16l-0.32,0.16l-0.36,0.16l-0.36,0.12l-0.32,0.08l-0.36,0.12l-0.36,0.08l-1.48,0.16h-0.36l-0.84-0.08l-0.36-0.04
		l-0.32-0.08l-1.08-0.36l-0.32-0.2l-0.36-0.2l-0.28-0.28l-0.28-0.24l-0.24-0.32l-0.2-0.28l-0.2-0.36l-0.12-0.32l-0.12-0.36
		l-0.16-0.72l-0.08-0.32l-0.04-0.36l-0.04-0.4l0.04-0.36v-0.36l0.04-0.36l0.04-0.4l0.08-0.72v-0.36l0.04-0.36l0.04-0.4l0.08-0.52
		l0.24-1.36l0.08-0.52l0.12-0.4l0.16-0.72l0.04-0.36l0.08-0.36l0.12-0.36l0.08-0.36l0.12-0.36l0.16-0.72l0.16-0.52l0.12-0.48
		l0.16-0.72l0.12-0.36l0.2-0.72l0.12-0.36l0.08-0.32l0.24-0.72l0.12-0.32l0.24-0.72l0.08-0.32l0.16-0.36l0.24-0.68l0.12-0.36
		l0.12-0.4l0.08-0.24l0.12-0.4l0.08-0.36l0.12-0.32l0.16-0.36l0.12-0.32l0.16-0.36l0.12-0.32l0.12-0.36l0.16-0.32l0.12-0.36
		l0.12-0.32l0.36-1.08l0.32-0.64l0.24-0.28l0.32-0.16L138.3,61.1z M140.02,74.1l-0.4,0.12l-0.24,0.08l-0.4,0.12l-0.32,0.16
		l-0.36,0.16l-0.32,0.16l-0.28,0.2l-0.6,0.4l-0.28,0.2l-0.32,0.28l-0.2,0.16l-0.28,0.32l-0.2,0.28l-0.12,0.32l-0.12,0.36l-0.12,0.32
		l-0.08,0.36l-0.12,0.36l-0.12,0.52l-0.12,0.48l-0.12,0.36l-0.08,0.36l-0.08,0.4l-0.12,0.48l-0.08,0.52l-0.04,0.4v0.36l-0.04,0.36
		v0.36l0.04,0.36v0.76l0.08,0.52l0.12,0.48l0.16,0.36l0.16,0.32l0.56,0.48l0.32,0.2l0.32,0.12l0.72,0.08l0.72-0.08l0.72-0.16
		l0.32-0.12l0.32-0.16l0.32-0.24l0.28-0.2l0.32-0.2l0.28-0.24l0.16-0.24v-0.28l-0.16-0.32l-0.2-0.44l-0.08-0.48l0.08-0.4l0.32-0.36
		l0.4-0.28l0.36-0.08l0.32,0.04l0.28,0.08l0.24-0.08l0.16-0.24l0.16-0.32l0.12-0.36l0.08-0.36l0.12-0.32l0.36-1.08l0.08-0.36
		l0.04-0.36l0.08-0.36l0.12-1.08v-1.12l-0.04-0.36l-0.16-0.72l-0.16-0.32l-0.2-0.32l-0.28-0.24l-0.64-0.32l-0.36-0.12l-0.32-0.04
		l-0.72-0.08L140.02,74.1z"/>
	<path d="M162.7,69.42l-0.2,0.36l-0.32,0.64l-0.2,0.44l-0.28,0.44l-0.2,0.28l-0.2,0.32l-0.2,0.28l-0.2,0.36l-0.16,0.24l-0.2,0.32
		l-0.28,0.36l-0.36,0.4l-0.36,0.36l-0.16,0.2l-0.28,0.32l-0.52,0.52l-0.24,0.28l-0.44,0.48l-0.28,0.24l-0.32,0.32l-0.44,0.32
		l-0.6,0.52l-0.32,0.2l-0.88,0.56l-0.28,0.12l-0.32,0.2l-0.44,0.36l-0.28,0.36l-0.16,0.32l-0.08,0.44l-0.12,0.72v0.24l-0.08,0.4
		l-0.08,0.36l-0.04,0.4v0.84l-0.04,0.52v0.8l0.08,0.44l0.04,0.24l0.08,0.4l0.16,0.36l0.16,0.32l0.24,0.28l0.32,0.2l0.32,0.12
		l0.4,0.08h0.68l0.32-0.04l0.36-0.12l0.48-0.2l0.44-0.24l0.32-0.24l0.4-0.32l0.36-0.36l0.48-0.44l0.32-0.28l0.24-0.32l0.16-0.2
		l0.24-0.32l0.16-0.28l0.24-0.36l0.16-0.2l0.24-0.36l0.32-0.6l0.2-0.32l0.24-0.36l0.2-0.36l0.2-0.4l0.36-0.52l0.4-0.32l0.52,0.08
		l0.32,0.4v0.4l-0.12,0.36l-0.16,0.32l-0.2,0.32l-0.16,0.36l-0.16,0.32l-0.12,0.32l-0.2,0.32l-0.16,0.28l-0.2,0.32l-0.24,0.36
		l-0.08,0.2l-0.2,0.36l-0.24,0.32l-0.4,0.56l-0.28,0.36l-0.16,0.16l-0.28,0.36l-0.24,0.28l-0.32,0.4l-0.36,0.32l-0.28,0.28
		l-0.24,0.2l-0.28,0.24l-0.36,0.2l-0.32,0.16l-0.36,0.16l-0.32,0.16l-0.32,0.12l-0.36,0.16l-0.48,0.16l-0.8,0.16l-0.48,0.04
		l-0.44-0.04h-0.24l-0.4-0.04l-0.36-0.08l-0.32-0.12l-0.36-0.12l-0.32-0.16l-0.32-0.2l-0.28-0.24l-0.24-0.24l-0.24-0.28l-0.16-0.32
		l-0.16-0.36l-0.12-0.32l-0.08-0.36l-0.12-0.36l-0.04-0.36l-0.08-0.4v-0.24l-0.08-0.44l-0.04-0.36v-0.36l0.04-0.36l0.04-0.4v-0.24
		l0.04-0.52l0.12-0.88l0.04-0.48v-0.36l0.08-0.36l0.08-0.4l0.28-1.32l0.12-0.48l0.12-0.72l0.08-0.2l0.12-0.48l0.08-0.24l0.16-0.6
		l0.12-0.52l0.08-0.36l0.12-0.48l0.16-0.56l0.04-0.28l0.16-0.56l0.16-0.52l0.12-0.28l0.16-0.52l0.16-0.48l0.16-0.36l0.4-1.04
		l0.08-0.24l0.24-0.56l0.28-0.64l0.2-0.48l0.16-0.36l0.12-0.24l0.2-0.36l0.28-0.68l0.2-0.4l0.2-0.36l0.24-0.36l0.32-0.52l0.52-0.72
		l0.24-0.32l0.52-0.52l0.16-0.2l0.28-0.28l0.28-0.2l0.64-0.44l0.44-0.28l0.44-0.2l0.36-0.12l0.36-0.08h0.72l0.4,0.08l0.24,0.04
		l0.4,0.12l0.32,0.16l0.56,0.48l0.2,0.32l0.28,0.4l0.2,0.48l0.16,0.36l0.16,0.48l0.08,0.52v0.72l-0.08,1.08l-0.16,0.72l-0.12,0.32
		l-0.08,0.4l-0.32,0.96l-0.16,0.32L162.7,69.42z M156.06,70.54l-0.56,1.68l-0.08,0.36l-0.12,0.36l-0.16,0.52l-0.28,0.84l-0.12,0.4
		l-0.04,0.24l-0.12,0.4l-0.12,0.36l-0.08,0.4l0.08,0.24l0.24-0.16l0.4-0.32l1.64-1.64l0.2-0.28l0.2-0.32l0.24-0.36l0.16-0.16
		l0.24-0.36l0.28-0.36l0.28-0.4l0.28-0.44l0.2-0.32l0.16-0.28l0.2-0.28l0.32-0.64l0.16-0.4l0.12-0.24l0.16-0.4l0.16-0.36l0.08-0.36
		l0.12-0.36l0.12-0.44l0.16-0.44l0.12-0.44l0.16-0.44l0.04-0.4l0.04-0.36v-0.76l-0.08-0.32l-0.12-0.32l-0.28-0.2l-0.32-0.08
		l-0.36,0.08l-0.36,0.28l-0.28,0.24l-0.2,0.24l-0.2,0.28l-0.2,0.32l-0.4,0.6l-0.2,0.36l-0.16,0.36l-0.16,0.32l-0.16,0.36l-0.16,0.32
		l-0.16,0.36l-0.12,0.32l-0.16,0.44l-0.24,0.6l-0.16,0.36L156.06,70.54z"/>
	<path d="M172.78,86.77l-0.56,0.48l-0.64,0.4l-0.32,0.16l-0.64,0.4l-0.32,0.16l-0.72,0.24l-0.4,0.12l-0.72,0.12l-0.24,0.08
		l-0.4,0.08l-0.32,0.04h-0.36l-0.44,0.04h-0.36l-0.72-0.08l-0.44-0.12l-0.36-0.12l-0.28-0.12l-0.36-0.12l-0.32-0.16l-0.64-0.4
		l-0.28-0.24l-0.48-0.56l-0.2-0.32l-0.16-0.32l-0.2-0.32l-0.24-0.72l-0.16-0.72l-0.08-0.72l-0.04-0.4l0.04-0.36v-1.12l0.08-0.36
		l0.08-0.32l0.08-0.36l0.12-0.72l0.08-0.4l0.08-0.36l0.12-0.32l0.12-0.36l0.16-0.36l0.16-0.32l0.12-0.36l0.2-0.48l0.24-0.48
		l0.2-0.32l0.24-0.32l0.2-0.28l0.24-0.28l0.4-0.64l0.24-0.28l0.52-0.52l0.56-0.48l0.28-0.2l0.32-0.24l0.36-0.24l0.44-0.28l0.44-0.24
		l0.32-0.16l0.4-0.16l0.24-0.08l0.44-0.16l0.24-0.08l0.4-0.12l0.36-0.08l0.4-0.04l0.36-0.04h0.92l0.64,0.08l0.52,0.08l0.36,0.08
		l0.36,0.12l0.32,0.16l0.72,0.44l0.44,0.24l0.28,0.24l0.2,0.24l0.24,0.28l0.24,0.32l0.48,0.88l0.12,0.36l0.04,0.36l0.04,0.32
		l0.16,0.72v1.4l-0.08,0.48l-0.04,0.44l-0.04,0.4l-0.24,1.2l-0.16,0.56l-0.12,0.4l-0.16,0.4l-0.16,0.44l-0.12,0.36l-0.24,0.44
		l-0.36,0.72l-0.2,0.44l0.04,0.28l0.32,0.04h0.24l0.44-0.04l0.28-0.04l0.36-0.08l0.4-0.16l0.28-0.16l0.64-0.4l0.28-0.24l0.52-0.52
		l0.48-0.56l0.2-0.28l0.2-0.32l0.2-0.28l0.32-0.64l0.36-0.68l0.12-0.24l0.24-0.36l0.36-0.2l0.48,0.08l0.32,0.36l0.04,0.44
		l-0.12,0.36l-0.48,0.96l-0.2,0.28l-0.4,0.64l-0.16,0.32l-0.2,0.28l-0.24,0.32l-0.2,0.28l-0.24,0.24l-0.52,0.56l-0.24,0.24
		l-0.28,0.24l-0.28,0.2l-0.32,0.24l-0.28,0.16l-0.64,0.32l-0.36,0.16l-0.32,0.08l-1.44,0.16l-0.44-0.04l-0.36-0.04l-0.32-0.08
		l-0.32-0.04l-0.28,0.12l-0.28,0.2L172.78,86.77z M164.86,82.41l-0.04,0.48l0.04,0.4l0.04,0.52l0.08,0.64l0.16,0.64l0.28,0.6
		l0.28,0.4l0.32,0.28l0.44,0.2l0.6,0.16h0.52l0.4-0.04l0.4-0.08l0.36-0.16l0.32-0.16l0.36-0.2l0.32-0.2l0.28-0.24l0.32-0.24
		l0.16-0.28v-0.24l-0.16-0.28l-0.2-0.32l-0.08-0.36l0.08-0.48l0.16-0.48l0.28-0.24l0.32-0.2l0.36-0.04l0.36,0.08l0.28,0.08
		l0.24-0.04l0.16-0.24l0.12-0.32l0.48-1.44l0.24-1.08l0.08-0.52l0.12-0.68l0.08-1.36l-0.04-0.64l-0.16-0.68l-0.24-0.6l-0.28-0.4
		l-0.32-0.24l-0.48-0.2l-0.6-0.12l-0.52-0.04h-0.4l-0.32,0.08l-0.36,0.12l-0.4,0.24l-0.32,0.2l-0.36,0.24l-0.4,0.32l-0.28,0.24
		l-0.28,0.28l-0.2,0.28l-0.24,0.28l-0.2,0.32l-0.4,0.56l-0.2,0.32l-0.8,1.6l-0.12,0.36l-0.08,0.32l-0.24,0.72l-0.08,0.32l-0.12,0.36
		l-0.04,0.36v0.36L164.86,82.41z"/>
	<path d="M182.62,100.29l-0.44-0.12l-0.24-0.08l-0.36-0.16l-0.32-0.16l-0.28-0.24l-0.24-0.24l-0.2-0.32l-0.28-0.44l-0.16-0.44
		l-0.08-0.36l-0.04-0.36l0.04-0.4l0.04-0.52l0.12-0.48l0.12-0.36l0.2-0.44l0.24-0.44l0.2-0.32l0.28-0.32l0.24-0.28l0.44-0.48
		l0.84-0.72l0.28-0.2l0.88-0.56l0.36-0.16l0.44-0.24l0.48-0.2l0.4-0.2l0.2-0.08l0.44-0.24l0.44-0.2l0.4-0.2l0.36-0.2l0.32-0.12
		l0.28-0.16l0.24-0.24l0.12-0.32l0.24-0.68l0.32-1l0.08-0.36l0.12-0.36l0.08-0.32l0.08-0.36l0.12-0.36l0.08-0.32l0.12-0.36
		l0.24-0.64l0.12-0.36h-0.08l-0.16,0.32l-0.4,0.64l-0.2,0.28l-0.24,0.28l-0.2,0.28l-0.28,0.32l-0.16,0.2l-0.28,0.32l-0.24,0.28
		l-0.52,0.52l-0.28,0.24l-0.32,0.2l-0.64,0.32l-0.32,0.2l-0.32,0.16l-0.32,0.08l-0.36,0.08l-0.72,0.08h-0.76l-0.48-0.04l-0.48-0.08
		l-0.4-0.16l-0.44-0.24l-0.4-0.28l-0.28-0.28l-0.24-0.28l-0.2-0.32l-0.24-0.48l-0.16-0.44l-0.08-0.36l-0.04-0.36l-0.08-0.4
		l-0.08-0.48l-0.04-0.52v-0.4l0.08-0.72l0.08-0.52l0.12-0.64l0.16-0.52l0.12-0.36l0.08-0.32l0.12-0.36l0.12-0.32l0.16-0.36
		l0.16-0.44l0.32-0.72l0.2-0.4l0.2-0.36l0.2-0.28l0.52-0.72l0.28-0.44l0.24-0.28l0.4-0.56l0.48-0.56l0.28-0.24l0.32-0.24l0.52-0.44
		l1.12-0.84l0.88-0.48l0.4-0.16l0.44-0.2l0.84-0.28l0.4-0.08l0.24-0.04l0.4-0.12l0.36-0.08l0.72-0.08h0.4l1.04,0.04h0.36l0.36,0.04
		l0.32,0.04l0.36,0.08l0.4,0.16l0.36,0.12l0.28,0.08l0.32,0.16l0.32,0.12l0.36,0.16l0.44,0.28l0.36,0.2l0.36,0.24l0.32,0.24
		l0.24,0.28l0.12,0.4l-0.12,0.44l-0.24,0.32l-0.24,0.24l-0.28,0.2l-0.32,0.16l-0.36-0.04l-0.36-0.2l-0.56-0.36l-0.64-0.4l-0.32-0.16
		l-0.36-0.12l-0.36-0.08l-0.36-0.12l-0.72-0.16h-1.12l-0.36,0.04l-0.4,0.08l-0.44,0.12l-0.44,0.16l-0.44,0.12l-0.48,0.24l-0.56,0.32
		l-0.44,0.32l-0.28,0.2l-0.28,0.24l-0.24,0.28l-0.32,0.36l-0.32,0.4l-0.28,0.32l-0.28,0.4l-0.48,0.68l-0.32,0.48l-0.24,0.44
		l-0.32,0.72l-0.12,0.32l-0.16,0.36l-0.24,0.72l-0.08,0.36l-0.12,0.36l-0.08,0.4l-0.08,0.36l-0.04,0.36l-0.04,0.4l-0.04,0.36v0.4
		l0.04,0.36l0.12,0.36l0.12,0.4l0.08,0.24l0.2,0.4l0.24,0.24l0.32,0.16l0.36,0.08h0.36l0.32-0.08l0.36-0.08l0.32-0.16l0.84-0.6
		l0.28-0.24l0.24-0.24l0.24-0.28l0.24-0.24l0.24-0.28l0.2-0.28l0.4-0.64l0.28-0.4l0.32-0.4l0.2-0.32l0.2-0.28l0.12-0.36l0.32-0.64
		l0.36-0.64l0.16-0.32l0.16-0.36l0.96-2.88l0.08-0.36l0.16-0.4l0.32-0.32l0.4-0.2h0.4l0.52,0.08l0.48,0.16l0.36,0.16l0.28,0.36
		l0.12,0.44l-0.04,0.36l-0.08,0.36l-0.24,0.72l-0.08,0.32l-0.12,0.36l-0.08,0.36l-0.24,0.72l-0.08,0.32l-0.04,0.32l-0.12,0.36
		l-0.24,1.08l-0.24,0.72l-0.08,0.36l-0.08,0.4l-0.08,0.24l-0.08,0.4l-0.08,0.36l-0.12,0.36l-0.16,0.52l-0.12,0.48l-0.12,0.36
		l-0.08,0.36l-0.36,1.08l-0.04,0.44l0.08,0.24l0.32-0.08l0.6-0.28l0.32-0.16l0.32-0.2l0.28-0.2l0.32-0.24l0.24-0.2l0.28-0.28
		l0.24-0.2l0.28-0.24l0.32-0.32l0.28-0.24l0.24-0.28l0.2-0.28l0.2-0.32l0.24-0.28l0.24-0.36l0.36-0.44l0.28-0.32l0.4-0.64l0.2-0.28
		l0.2-0.32l0.16-0.32l0.12-0.36l0.48-0.96l0.16-0.36l0.16-0.32l0.24-0.28l0.24-0.2h0.36l0.36,0.24l0.16,0.28v0.36l-0.16,0.36
		l-0.2,0.48l-0.2,0.44l-0.2,0.32l-0.16,0.32l-0.2,0.36l-0.2,0.44l-0.24,0.44l-0.24,0.4l-0.28,0.4l-0.24,0.4l-0.24,0.32l-0.2,0.28
		l-0.24,0.36l-0.12,0.2l-0.56,0.72l-0.36,0.4l-0.48,0.48l-0.32,0.28l-0.52,0.44l-0.24,0.28l-0.28,0.24l-0.24,0.24l-0.32,0.2
		l-0.28,0.2l-0.32,0.16l-0.28,0.2l-0.32,0.2l-0.64,0.32l-0.6,0.36l-0.32,0.16l-0.32,0.2l-0.2,0.36l-0.2,0.48l-0.08,0.36l-0.12,0.32
		l-0.08,0.36l-0.12,0.4l-0.08,0.2l-0.12,0.4l-0.12,0.36l-0.16,0.52l-0.2,0.6l-0.28,0.6l-0.2,0.52l-0.12,0.36l-0.12,0.32l-0.16,0.36
		l-0.24,0.36l-0.28,0.44l-0.24,0.32l-0.2,0.28l-0.24,0.24l-0.24,0.2l-0.24,0.24l-0.36,0.24l-0.32,0.2l-0.44,0.2l-0.64,0.2
		l-0.52,0.08l-0.36,0.04h-0.36l-0.4-0.04L182.62,100.29z M182.94,96.85l0.04,0.48l0.16,0.32l0.4,0.24l0.44,0.12l0.4-0.04l0.32-0.12
		l0.32-0.2l0.4-0.32l0.32-0.32l0.24-0.32l0.2-0.28l0.2-0.36l0.4-0.88l0.12-0.4l0.56-1.68l0.08-0.52l-0.24-0.16l-0.36,0.16l-0.36,0.2
		l-0.96,0.6l-0.28,0.2l-0.32,0.28l-0.28,0.24l-0.72,0.72l-0.24,0.28l-0.24,0.32l-0.2,0.28l-0.16,0.32l-0.16,0.36L182.94,96.85z"/>
</g>
</svg>
